M48
; DRILL file {KiCad (6.0.0)} date Sat Jun 25 15:53:21 2022
; FORMAT={-:-/ absolute / metric / decimal}
; #@! TF.CreationDate,2022-06-25T15:53:21+02:00
; #@! TF.GenerationSoftware,Kicad,Pcbnew,(6.0.0)
; #@! TF.FileFunction,Plated,1,2,PTH
FMAT,2
METRIC
; #@! TA.AperFunction,Plated,PTH,ViaDrill
T1C0.800
; #@! TA.AperFunction,Plated,PTH,ComponentDrill
T2C0.800
; #@! TA.AperFunction,Plated,PTH,ComponentDrill
T3C1.000
; #@! TA.AperFunction,Plated,PTH,ComponentDrill
T4C1.040
; #@! TA.AperFunction,Plated,PTH,ComponentDrill
T5C1.100
; #@! TA.AperFunction,Plated,PTH,ComponentDrill
T6C1.520
%
G90
G05
T1
X11.2Y52.07
X13.74Y49.53
X16.28Y46.99
X19.05Y44.45
X27.94Y52.07
X30.48Y49.53
X33.02Y46.99
X40.64Y44.45
X50.8Y52.07
X53.34Y49.53
X55.88Y46.99
X60.96Y44.45
X66.04Y52.07
X68.58Y49.53
X71.12Y46.99
T2
X38.829Y22.748
X38.931Y29.288
X43.18Y36.79
X43.18Y34.29
X48.989Y22.748
X49.091Y29.288
X49.096Y19.019
X59.256Y19.019
T3
X5.08Y61.477
X5.08Y58.938
X7.62Y61.477
X7.62Y58.938
X10.16Y61.477
X10.16Y58.938
X12.7Y61.477
X12.7Y58.938
X15.24Y61.477
X15.24Y58.938
X27.94Y61.477
X27.94Y58.938
X30.48Y61.477
X30.48Y58.938
X33.02Y61.477
X33.02Y58.938
X35.56Y61.477
X35.56Y58.938
X38.1Y61.477
X38.1Y58.938
X50.8Y61.477
X50.8Y58.938
X53.34Y61.477
X53.34Y58.938
X55.88Y61.477
X55.88Y58.938
X58.42Y61.477
X58.42Y58.938
X60.96Y61.477
X60.96Y58.938
X68.58Y44.45
X68.58Y3.81
X73.66Y61.477
X73.66Y58.938
X76.2Y61.477
X76.2Y58.938
X78.74Y61.477
X78.74Y58.938
X81.28Y61.477
X81.28Y58.938
X83.82Y61.477
X83.82Y58.938
X86.36Y44.45
X86.36Y3.81
T4
X3.25Y40.64
X3.25Y15.24
X5.79Y40.64
X5.79Y15.24
X8.33Y40.64
X8.33Y15.24
X10.87Y40.64
X10.87Y15.24
X13.41Y40.64
X13.41Y15.24
X15.95Y40.64
X15.95Y15.24
X18.49Y40.64
X18.49Y15.24
X21.03Y40.64
X21.03Y15.24
X23.57Y40.64
X23.57Y15.24
X26.11Y40.64
X26.11Y15.24
X28.65Y40.64
X28.65Y15.24
X31.19Y40.64
X31.19Y15.24
X33.73Y40.64
X33.73Y15.24
X36.27Y40.64
X36.27Y15.24
X38.81Y40.64
X38.81Y15.24
X41.35Y40.64
X41.35Y15.24
X43.89Y40.64
X43.89Y15.24
X46.43Y40.64
X46.43Y15.24
X48.97Y40.64
X48.97Y15.24
T5
X59.259Y30.181
X59.259Y23.681
X63.759Y30.181
X63.759Y23.681
X63.933Y17.78
X63.933Y7.62
T6
X4.72Y6.35
X9.8Y6.35
X16.27Y6.35
X21.35Y6.35
X27.82Y6.35
X32.9Y6.35
X39.37Y6.35
X44.45Y6.35
X53.34Y6.35
X58.42Y6.35
T0
M30
