M48
; DRILL file {KiCad (6.0.0)} date Tue Jun 21 00:17:02 2022
; FORMAT={-:-/ absolute / metric / decimal}
; #@! TF.CreationDate,2022-06-21T00:17:02+02:00
; #@! TF.GenerationSoftware,Kicad,Pcbnew,(6.0.0)
; #@! TF.FileFunction,Plated,1,2,PTH
FMAT,2
METRIC
; #@! TA.AperFunction,Plated,PTH,ComponentDrill
T1C0.700
; #@! TA.AperFunction,Plated,PTH,ViaDrill
T2C0.800
; #@! TA.AperFunction,Plated,PTH,ComponentDrill
T3C0.800
; #@! TA.AperFunction,Plated,PTH,ComponentDrill
T4C1.000
; #@! TA.AperFunction,Plated,PTH,ComponentDrill
T5C1.040
; #@! TA.AperFunction,Plated,PTH,ComponentDrill
T6C1.100
; #@! TA.AperFunction,Plated,PTH,ComponentDrill
T7C1.520
%
G90
G05
T1
X38.1Y44.45
X38.1Y36.83
X45.72Y44.45
X45.72Y36.83
T2
X33.02Y33.02
X55.88Y33.02
X60.96Y43.18
X63.5Y40.64
X66.04Y35.56
X68.58Y43.18
X71.12Y40.64
X73.66Y43.18
X76.2Y38.1
X76.2Y35.56
X81.28Y38.1
X83.82Y35.56
X86.36Y43.18
X88.9Y40.64
X91.44Y43.18
X93.98Y38.1
X96.52Y35.56
T3
X27.98Y48.26
X30.48Y48.26
T4
X15.195Y22.62
X15.195Y4.84
X55.835Y22.62
X55.835Y4.84
X66.04Y52.07
X66.04Y49.53
X66.04Y27.94
X66.04Y25.4
X68.58Y52.07
X68.58Y49.53
X68.58Y27.94
X68.58Y25.4
X71.12Y52.07
X71.12Y49.53
X71.12Y27.94
X71.12Y25.4
X73.66Y52.07
X73.66Y49.53
X73.66Y27.94
X73.66Y25.4
X76.2Y52.07
X76.2Y49.53
X76.2Y27.94
X76.2Y25.4
X88.9Y52.07
X88.9Y49.53
X88.9Y27.94
X88.9Y25.4
X91.44Y52.07
X91.44Y49.53
X91.44Y27.94
X91.44Y25.4
X93.98Y52.07
X93.98Y49.53
X93.98Y27.94
X93.98Y25.4
X96.52Y52.07
X96.52Y49.53
X96.52Y27.94
X96.52Y25.4
X99.06Y52.07
X99.06Y49.53
X99.06Y27.94
X99.06Y25.4
T5
X4.52Y53.34
X4.52Y27.94
X7.06Y53.34
X7.06Y27.94
X9.6Y53.34
X9.6Y27.94
X12.14Y53.34
X12.14Y27.94
X14.68Y53.34
X14.68Y27.94
X17.22Y53.34
X17.22Y27.94
X19.76Y53.34
X19.76Y27.94
X22.3Y53.34
X22.3Y27.94
X24.84Y53.34
X24.84Y27.94
X27.38Y53.34
X27.38Y27.94
X29.92Y53.34
X29.92Y27.94
X32.46Y53.34
X32.46Y27.94
X35.0Y53.34
X35.0Y27.94
X37.54Y53.34
X37.54Y27.94
X40.08Y53.34
X40.08Y27.94
X42.62Y53.34
X42.62Y27.94
X45.16Y53.34
X45.16Y27.94
X47.7Y53.34
X47.7Y27.94
X50.24Y53.34
X50.24Y27.94
T6
X99.35Y42.06
X99.35Y35.56
X103.85Y42.06
X103.85Y35.56
T7
X7.62Y10.16
X7.62Y5.08
X63.5Y7.62
X68.58Y7.62
X74.93Y7.62
X80.01Y7.62
X86.36Y7.62
X91.44Y7.62
X97.79Y7.62
X102.87Y7.62
T0
M30
