M48
; DRILL file {KiCad (6.0.0)} date Tue Jun 21 22:55:50 2022
; FORMAT={-:-/ absolute / metric / decimal}
; #@! TF.CreationDate,2022-06-21T22:55:50+02:00
; #@! TF.GenerationSoftware,Kicad,Pcbnew,(6.0.0)
; #@! TF.FileFunction,Plated,1,2,PTH
FMAT,2
METRIC
; #@! TA.AperFunction,Plated,PTH,ComponentDrill
T1C0.700
; #@! TA.AperFunction,Plated,PTH,ViaDrill
T2C0.800
; #@! TA.AperFunction,Plated,PTH,ComponentDrill
T3C0.800
; #@! TA.AperFunction,Plated,PTH,ComponentDrill
T4C1.000
; #@! TA.AperFunction,Plated,PTH,ComponentDrill
T5C1.040
; #@! TA.AperFunction,Plated,PTH,ComponentDrill
T6C1.100
; #@! TA.AperFunction,Plated,PTH,ComponentDrill
T7C1.520
%
G90
G05
T1
X38.1Y30.48
X41.91Y22.86
X45.72Y30.48
X49.53Y22.86
T2
X12.7Y53.34
X15.24Y50.8
X17.78Y48.26
X20.32Y45.72
X30.48Y53.34
X33.02Y50.8
X35.56Y48.26
X40.64Y45.72
X53.34Y53.34
X55.88Y50.8
X58.42Y48.26
X63.5Y45.72
X68.58Y53.34
X71.12Y50.8
X73.66Y48.26
T3
X45.72Y38.06
X45.72Y35.56
T4
X7.62Y62.747
X7.62Y60.207
X10.16Y62.747
X10.16Y60.207
X12.7Y62.747
X12.7Y60.207
X15.24Y62.747
X15.24Y60.207
X17.78Y62.747
X17.78Y60.207
X30.48Y62.747
X30.48Y60.207
X33.02Y62.747
X33.02Y60.207
X35.56Y62.747
X35.56Y60.207
X38.1Y62.747
X38.1Y60.207
X40.64Y62.747
X40.64Y60.207
X53.34Y62.747
X53.34Y60.207
X55.88Y62.747
X55.88Y60.207
X58.42Y62.747
X58.42Y60.207
X60.96Y62.747
X60.96Y60.207
X63.5Y62.747
X63.5Y60.207
X71.12Y45.72
X71.12Y5.08
X76.2Y62.747
X76.2Y60.207
X78.74Y62.747
X78.74Y60.207
X81.28Y62.747
X81.28Y60.207
X83.82Y62.747
X83.82Y60.207
X86.36Y62.747
X86.36Y60.207
X88.9Y45.72
X88.9Y5.08
T5
X4.52Y41.91
X4.52Y16.51
X7.06Y41.91
X7.06Y16.51
X9.6Y41.91
X9.6Y16.51
X12.14Y41.91
X12.14Y16.51
X14.68Y41.91
X14.68Y16.51
X17.22Y41.91
X17.22Y16.51
X19.76Y41.91
X19.76Y16.51
X22.3Y41.91
X22.3Y16.51
X24.84Y41.91
X24.84Y16.51
X27.38Y41.91
X27.38Y16.51
X29.92Y41.91
X29.92Y16.51
X32.46Y41.91
X32.46Y16.51
X35.0Y41.91
X35.0Y16.51
X37.54Y41.91
X37.54Y16.51
X40.08Y41.91
X40.08Y16.51
X42.62Y41.91
X42.62Y16.51
X45.16Y41.91
X45.16Y16.51
X47.7Y41.91
X47.7Y16.51
X50.24Y41.91
X50.24Y16.51
T6
X61.25Y31.19
X61.25Y24.69
X65.75Y31.19
X65.75Y24.69
T7
X7.26Y7.62
X12.34Y7.62
X18.81Y7.62
X23.89Y7.62
X30.36Y7.62
X35.44Y7.62
X41.91Y7.62
X46.99Y7.62
X58.42Y7.62
X63.5Y7.62
T0
M30
